<svg width="95" height="21" fill="none" xmlns="http://www.w3.org/2000/svg"><path d="M94.6 9.386V7.73h-2.056V5.155l-.07.021-1.97.603v1.95h-3.048V6.643c-.03-.412.09-.82.336-1.152a1.185 1.185 0 0 1 .942-.385c.309.004.613.073.894.203l.076.034V3.6l-.036-.013a3.483 3.483 0 0 0-1.143-.152 3.348 3.348 0 0 0-1.62.39 2.77 2.77 0 0 0-1.112 1.098 3.276 3.276 0 0 0-.393 1.613V7.73h-1.432v1.656H85.4v6.977h2.056V9.386h3.049v4.433c0 1.827.861 2.751 2.56 2.751.294-.002.586-.034.873-.096a2.41 2.41 0 0 0 .636-.202l.027-.016v-1.672l-.084.056a1.44 1.44 0 0 1-.413.178c-.132.04-.268.064-.406.07a1.101 1.101 0 0 1-.875-.32 1.716 1.716 0 0 1-.28-1.106V9.386H94.6Zm-15.224 5.502a2.181 2.181 0 0 1-1.75-.735 3.12 3.12 0 0 1-.628-2.075 3.243 3.243 0 0 1 .628-2.13A2.146 2.146 0 0 1 79.36 9.2a2.114 2.114 0 0 1 1.686.713 3.18 3.18 0 0 1 .616 2.113 3.39 3.39 0 0 1-.58 2.14 2.062 2.062 0 0 1-1.706.721Zm.09-7.37a4.51 4.51 0 0 0-3.36 1.24 4.648 4.648 0 0 0-1.214 3.385 4.402 4.402 0 0 0 1.185 3.231 4.302 4.302 0 0 0 3.182 1.194 4.387 4.387 0 0 0 3.294-1.257 4.637 4.637 0 0 0 1.214-3.351 4.523 4.523 0 0 0-1.139-3.254 4.195 4.195 0 0 0-3.161-1.186v-.002Zm-7.889.002a3.717 3.717 0 0 0-2.382.736 2.347 2.347 0 0 0-.927 1.916c-.008.367.06.731.2 1.07.138.313.348.588.614.802a5.35 5.35 0 0 0 1.248.7c.356.14.703.301 1.04.483.176.093.332.22.457.376a.843.843 0 0 1 .127.49c0 .58-.434.863-1.328.863a3.651 3.651 0 0 1-1.124-.206 4.222 4.222 0 0 1-1.15-.583l-.086-.061v1.98l.03.014c.35.153.716.265 1.09.336.383.084.773.129 1.165.134a3.946 3.946 0 0 0 2.514-.74 2.395 2.395 0 0 0 .936-1.962 2.255 2.255 0 0 0-.504-1.483 4.316 4.316 0 0 0-1.71-1.09 4.413 4.413 0 0 1-1.22-.634.886.886 0 0 1-.246-.665.74.74 0 0 1 .312-.615c.256-.177.564-.264.875-.247.353.002.704.056 1.042.16.323.094.63.236.91.422l.083.057V7.898l-.032-.014a4.484 4.484 0 0 0-.923-.257 5.639 5.639 0 0 0-1.013-.105l.002-.002Zm-8.669 7.368a2.18 2.18 0 0 1-1.749-.735 3.12 3.12 0 0 1-.628-2.073 3.243 3.243 0 0 1 .629-2.13 2.145 2.145 0 0 1 1.732-.747 2.113 2.113 0 0 1 1.686.713 3.18 3.18 0 0 1 .617 2.113 3.391 3.391 0 0 1-.58 2.14 2.062 2.062 0 0 1-1.706.72Zm.093-7.367a4.508 4.508 0 0 0-3.361 1.24 4.65 4.65 0 0 0-1.215 3.384 4.403 4.403 0 0 0 1.186 3.232 4.3 4.3 0 0 0 3.181 1.193 4.385 4.385 0 0 0 3.294-1.257 4.636 4.636 0 0 0 1.215-3.35 4.523 4.523 0 0 0-1.14-3.255 4.195 4.195 0 0 0-3.16-1.186v-.001Zm-7.696 1.704V7.73h-2.031v8.633h2.03v-4.416c-.028-.65.149-1.292.507-1.834a1.553 1.553 0 0 1 1.315-.694c.206.003.411.033.61.09.168.036.328.101.474.19l.085.063V7.715l-.033-.014a2.102 2.102 0 0 0-.795-.121 2.081 2.081 0 0 0-1.358.487 2.75 2.75 0 0 0-.782 1.159h-.022Zm-5.668-1.703a5.014 5.014 0 0 0-2.47.593A4 4 0 0 0 45.54 9.79a5.335 5.335 0 0 0-.56 2.481c-.01.776.177 1.541.544 2.225a3.821 3.821 0 0 0 1.52 1.536 4.525 4.525 0 0 0 2.22.54 4.861 4.861 0 0 0 2.452-.574l.026-.015v-1.86l-.085.062a3.82 3.82 0 0 1-.994.517c-.312.116-.64.18-.973.189a2.5 2.5 0 0 1-1.901-.741 2.882 2.882 0 0 1-.701-2.053 2.99 2.99 0 0 1 .73-2.108 2.486 2.486 0 0 1 1.905-.786c.7.01 1.378.247 1.934.673l.085.061v-1.96l-.028-.016a3.352 3.352 0 0 0-.94-.318 5.612 5.612 0 0 0-1.135-.122h-.001Zm-6.056.207h-2.03v8.634h2.03V7.73Zm-.994-3.678a1.224 1.224 0 0 0-.865.34 1.119 1.119 0 0 0-.363.846 1.089 1.089 0 0 0 .357.83c.236.22.547.339.87.332.322.006.635-.112.872-.33a1.083 1.083 0 0 0 .363-.832 1.142 1.142 0 0 0-.353-.837 1.211 1.211 0 0 0-.883-.349h.002Zm-5.07 3.041v9.272h2.073V4.316h-2.868l-3.646 8.948-3.539-8.948h-2.986v12.047h1.948V7.09h.067l3.736 9.272h1.47l3.68-9.272.066.001ZM9.976 9.844H.422V.29h9.554v9.554ZM20.525 9.844H10.97V.29h9.554v9.554ZM9.976 20.396H.422v-9.554h9.554v9.554ZM20.525 20.396H10.97v-9.554h9.554v9.554Z" fill="#718087"/></svg>